<svg id="Layer_1" data-name="Layer 1" xmlns="http://www.w3.org/2000/svg" viewBox="0 0 116 294.01"><defs><style>.cls-1{fill:#fff;stroke-width:6px;}.cls-1,.cls-2,.cls-3{stroke:#fd695e;stroke-miterlimit:10;}.cls-2,.cls-4{fill:#fd695e;}.cls-2{stroke-width:3px;}.cls-3{fill:none;stroke-width:9px;}</style></defs><circle class="cls-1" cx="58.5" cy="221.51" r="41.5"/><path class="cls-1" d="M79.34,291H36.53Q30.26,158.52,24,26C30.08,11.78,44.71,2.6,60.54,3A38.5,38.5,0,0,1,95,26Z"/><circle class="cls-2" cx="58.5" cy="221.51" r="21.5"/><path class="cls-3" d="M111.5,184.28a10.18,10.18,0,0,1-10,10.12l-87,1a9.9,9.9,0,0,1-10-9.89V86.16a10.16,10.16,0,0,1,10-10.11l87-1a9.89,9.89,0,0,1,10,9.88Z"/><path class="cls-4" d="M68.65,14.36c-.42-.81-2.08-1.77-3.69-2.14,0,0-8.24-1.86-17.61,3.43A26.76,26.76,0,0,0,36.2,27.15c-.64,1.52-.81,3.43-.39,4.25s2.18,1.77,3,.32A30.83,30.83,0,0,1,51,20.51c2.4-1.24,16.21-2.84,16.21-2.84C68.85,17.48,69.08,15.18,68.65,14.36Z"/></svg>