<svg xmlns="http://www.w3.org/2000/svg" xmlns:xlink="http://www.w3.org/1999/xlink" width="231.2" height="294.017" viewBox="0 0 231.2 294.017"><defs><filter id="a"><feOffset dx="3" dy="3" input="SourceAlpha"/><feGaussianBlur stdDeviation="1" result="b"/><feFlood flood-color="#fff" flood-opacity="0.161" result="c"/><feComposite operator="out" in="SourceGraphic" in2="b"/><feComposite operator="in" in="c"/><feComposite operator="in" in2="SourceGraphic"/></filter><filter id="d"><feOffset dx="3" dy="3" input="SourceAlpha"/><feGaussianBlur stdDeviation="1" result="e"/><feFlood flood-color="#fff" flood-opacity="0.161" result="f"/><feComposite operator="out" in="SourceGraphic" in2="e"/><feComposite operator="in" in="f"/><feComposite operator="in" in2="SourceGraphic"/></filter><filter id="g"><feOffset dx="3" dy="3" input="SourceAlpha"/><feGaussianBlur stdDeviation="1" result="h"/><feFlood flood-color="#fff" flood-opacity="0.161" result="i"/><feComposite operator="out" in="SourceGraphic" in2="h"/><feComposite operator="in" in="i"/><feComposite operator="in" in2="SourceGraphic"/></filter><filter id="j"><feOffset dx="3" dy="3" input="SourceAlpha"/><feGaussianBlur stdDeviation="1" result="k"/><feFlood flood-color="#fff" flood-opacity="0.161" result="l"/><feComposite operator="out" in="SourceGraphic" in2="k"/><feComposite operator="in" in="l"/><feComposite operator="in" in2="SourceGraphic"/></filter><filter id="m"><feOffset dx="3" dy="3" input="SourceAlpha"/><feGaussianBlur stdDeviation="1" result="n"/><feFlood flood-color="#fff" flood-opacity="0.161" result="o"/><feComposite operator="out" in="SourceGraphic" in2="n"/><feComposite operator="in" in="o"/><feComposite operator="in" in2="SourceGraphic"/></filter><filter id="p"><feOffset dx="3" dy="3" input="SourceAlpha"/><feGaussianBlur stdDeviation="1" result="q"/><feFlood flood-color="#fff" flood-opacity="0.161" result="r"/><feComposite operator="out" in="SourceGraphic" in2="q"/><feComposite operator="in" in="r"/><feComposite operator="in" in2="SourceGraphic"/></filter><filter id="s"><feOffset dx="3" dy="3" input="SourceAlpha"/><feGaussianBlur stdDeviation="1" result="t"/><feFlood flood-color="#fff" flood-opacity="0.161" result="u"/><feComposite operator="out" in="SourceGraphic" in2="t"/><feComposite operator="in" in="u"/><feComposite operator="in" in2="SourceGraphic"/></filter><filter id="v"><feOffset dx="3" dy="3" input="SourceAlpha"/><feGaussianBlur stdDeviation="1" result="w"/><feFlood flood-color="#fff" flood-opacity="0.161" result="x"/><feComposite operator="out" in="SourceGraphic" in2="w"/><feComposite operator="in" in="x"/><feComposite operator="in" in2="SourceGraphic"/></filter><filter id="y"><feOffset dx="3" dy="3" input="SourceAlpha"/><feGaussianBlur stdDeviation="1" result="z"/><feFlood flood-color="#fff" flood-opacity="0.161" result="aa"/><feComposite operator="out" in="SourceGraphic" in2="z"/><feComposite operator="in" in="aa"/><feComposite operator="in" in2="SourceGraphic"/></filter><filter id="ab"><feOffset dx="3" dy="3" input="SourceAlpha"/><feGaussianBlur stdDeviation="1" result="ac"/><feFlood flood-color="#fff" flood-opacity="0.161" result="ad"/><feComposite operator="out" in="SourceGraphic" in2="ac"/><feComposite operator="in" in="ad"/><feComposite operator="in" in2="SourceGraphic"/></filter><filter id="ae"><feOffset dx="3" dy="3" input="SourceAlpha"/><feGaussianBlur stdDeviation="1" result="af"/><feFlood flood-color="#fff" flood-opacity="0.161" result="ag"/><feComposite operator="out" in="SourceGraphic" in2="af"/><feComposite operator="in" in="ag"/><feComposite operator="in" in2="SourceGraphic"/></filter><filter id="ah"><feOffset dx="3" dy="3" input="SourceAlpha"/><feGaussianBlur stdDeviation="1" result="ai"/><feFlood flood-color="#fff" flood-opacity="0.161" result="aj"/><feComposite operator="out" in="SourceGraphic" in2="ai"/><feComposite operator="in" in="aj"/><feComposite operator="in" in2="SourceGraphic"/></filter><filter id="ak"><feOffset dx="3" dy="3" input="SourceAlpha"/><feGaussianBlur stdDeviation="1" result="al"/><feFlood flood-color="#fff" flood-opacity="0.161" result="am"/><feComposite operator="out" in="SourceGraphic" in2="al"/><feComposite operator="in" in="am"/><feComposite operator="in" in2="SourceGraphic"/></filter><filter id="an"><feOffset dx="3" dy="3" input="SourceAlpha"/><feGaussianBlur stdDeviation="1" result="ao"/><feFlood flood-color="#fff" flood-opacity="0.161" result="ap"/><feComposite operator="out" in="SourceGraphic" in2="ao"/><feComposite operator="in" in="ap"/><feComposite operator="in" in2="SourceGraphic"/></filter></defs><g transform="translate(-5.8 0.004)"><path d="M228.2,108.292C228.2,50.166,177.786,3,115.6,3S3,50.166,3,108.292,53.414,213.585,115.6,213.585s112.6-47.166,112.6-105.292" transform="translate(5.8 24)" fill="rgba(225,43,43,0)" stroke="#fd695e" stroke-miterlimit="10" stroke-width="6"/><line x2="2" y2="35" transform="translate(108.8 48)" fill="none"/><ellipse cx="100.875" cy="94.331" rx="100.875" ry="94.331" transform="translate(20.671 38.293)" fill="#fd695e"/><g data-type="innerShadowGroup"><path d="M117.493,200.8c0,.731-.452,1.329-1,1.329s-1-.6-1-1.329V51.329c0-.731.452-1.329,1-1.329s1,.6,1,1.329Z" transform="translate(-31.965 8.222)" fill="#222d39"/><g transform="matrix(1, 0, 0, 1, 5.8, 0)" filter="url(#a)"><path d="M117.493,200.8c0,.731-.452,1.329-1,1.329s-1-.6-1-1.329V51.329c0-.731.452-1.329,1-1.329s1,.6,1,1.329Z" transform="translate(-37.77 8.23)" fill="#fff"/></g></g><g data-type="innerShadowGroup"><path d="M152.493,188.8c0,.731-.452,1.329-1,1.329s-1-.6-1-1.329V39.329c0-.731.452-1.329,1-1.329s1,.6,1,1.329Z" transform="translate(-43.715 12.251)" fill="#222d39"/><g transform="matrix(1, 0, 0, 1, 5.8, 0)" filter="url(#d)"><path d="M152.493,188.8c0,.731-.452,1.329-1,1.329s-1-.6-1-1.329V39.329c0-.731.452-1.329,1-1.329s1,.6,1,1.329Z" transform="translate(-49.51 12.26)" fill="#fff"/></g></g><g data-type="innerShadowGroup"><path d="M193.493,188.8c0,.731-.452,1.329-1,1.329s-1-.6-1-1.329V39.329c0-.731.452-1.329,1-1.329s1,.6,1,1.329Z" transform="translate(-57.478 12.251)" fill="#222d39"/><g transform="matrix(1, 0, 0, 1, 5.8, 0)" filter="url(#g)"><path d="M193.493,188.8c0,.731-.452,1.329-1,1.329s-1-.6-1-1.329V39.329c0-.731.452-1.329,1-1.329s1,.6,1,1.329Z" transform="translate(-63.28 12.26)" fill="#fff"/></g></g><g data-type="innerShadowGroup"><path d="M229.493,197.8c0,.731-.452,1.329-1,1.329s-1-.6-1-1.329V48.329c0-.731.452-1.329,1-1.329s1,.6,1,1.329Z" transform="translate(-69.563 9.229)" fill="#222d39"/><g transform="matrix(1, 0, 0, 1, 5.8, 0)" filter="url(#j)"><path d="M229.493,197.8c0,.731-.452,1.329-1,1.329s-1-.6-1-1.329V48.329c0-.731.452-1.329,1-1.329s1,.6,1,1.329Z" transform="translate(-75.36 9.23)" fill="#fff"/></g></g><g data-type="innerShadowGroup"><path d="M264.993,188.6c0,.731-.452,1.329-1,1.329s-1-.6-1-1.329V78.329c0-.731.452-1.329,1-1.329s1,.6,1,1.329Z" transform="translate(-81.48 -0.841)" fill="#222d39"/><g transform="matrix(1, 0, 0, 1, 5.8, 0)" filter="url(#m)"><path d="M264.993,188.6c0,.731-.452,1.329-1,1.329s-1-.6-1-1.329V78.329c0-.731.452-1.329,1-1.329s1,.6,1,1.329Z" transform="translate(-87.28 -0.84)" fill="#fff"/></g></g><g data-type="innerShadowGroup"><path d="M296.493,179.809c0,.731-.452,1.329-1,1.329s-1-.6-1-1.329v-52.48c0-.731.452-1.329,1-1.329s1,.6,1,1.329Z" transform="translate(-92.054 -17.291)" fill="#222d39"/><g transform="matrix(1, 0, 0, 1, 5.8, 0)" filter="url(#p)"><path d="M296.493,179.809c0,.731-.452,1.329-1,1.329s-1-.6-1-1.329v-52.48c0-.731.452-1.329,1-1.329s1,.6,1,1.329Z" transform="translate(-97.85 -17.29)" fill="#fff"/></g></g><g transform="translate(-1911.146 5313.668)"><ellipse cx="100.875" cy="94.331" rx="100.875" ry="94.331" transform="translate(1931.671 -5275.707)" fill="#222d39"/><g data-type="innerShadowGroup"><path d="M50.493,178.809c0,.731-.452,1.329-1,1.329s-1-.6-1-1.329v-52.48c0-.731.452-1.329,1-1.329s1,.6,1,1.329Z" transform="translate(1901.526 -5330.955)" fill="#fd695e"/><g transform="matrix(1, 0, 0, 1, 1916.95, -5313.67)" filter="url(#s)"><path d="M50.493,178.809c0,.731-.452,1.329-1,1.329s-1-.6-1-1.329v-52.48c0-.731.452-1.329,1-1.329s1,.6,1,1.329Z" transform="translate(-15.42 -17.28)" fill="#fff"/></g></g><g data-type="innerShadowGroup"><path d="M82.993,188.6c0,.731-.452,1.329-1,1.329s-1-.6-1-1.329V78.329C81,77.6,81.452,77,82,77s1,.6,1,1.329Z" transform="translate(1890.616 -5314.841)" fill="#fd695e"/><g transform="matrix(1, 0, 0, 1, 1916.95, -5313.67)" filter="url(#v)"><path d="M82.993,188.6c0,.731-.452,1.329-1,1.329s-1-.6-1-1.329V78.329C81,77.6,81.452,77,82,77s1,.6,1,1.329Z" transform="translate(-26.33 -1.17)" fill="#fff"/></g></g><g data-type="innerShadowGroup"><path d="M117.493,200.8c0,.731-.452,1.329-1,1.329s-1-.6-1-1.329V51.329c0-.731.452-1.329,1-1.329s1,.6,1,1.329Z" transform="translate(1879.035 -5305.778)" fill="#fd695e"/><g transform="matrix(1, 0, 0, 1, 1916.95, -5313.67)" filter="url(#y)"><path d="M117.493,200.8c0,.731-.452,1.329-1,1.329s-1-.6-1-1.329V51.329c0-.731.452-1.329,1-1.329s1,.6,1,1.329Z" transform="translate(-37.91 7.89)" fill="#fff"/></g></g><g data-type="innerShadowGroup"><path d="M152.493,188.8c0,.731-.452,1.329-1,1.329s-1-.6-1-1.329V39.329c0-.731.452-1.329,1-1.329s1,.6,1,1.329Z" transform="translate(1867.285 -5301.749)" fill="#fd695e"/><g transform="matrix(1, 0, 0, 1, 1916.95, -5313.67)" filter="url(#ab)"><path d="M152.493,188.8c0,.731-.452,1.329-1,1.329s-1-.6-1-1.329V39.329c0-.731.452-1.329,1-1.329s1,.6,1,1.329Z" transform="translate(-49.66 11.92)" fill="#fff"/></g></g><g data-type="innerShadowGroup"><path d="M193.493,188.8c0,.731-.452,1.329-1,1.329s-1-.6-1-1.329V39.329c0-.731.452-1.329,1-1.329s1,.6,1,1.329Z" transform="translate(1853.522 -5301.749)" fill="#fd695e"/><g transform="matrix(1, 0, 0, 1, 1916.95, -5313.67)" filter="url(#ae)"><path d="M193.493,188.8c0,.731-.452,1.329-1,1.329s-1-.6-1-1.329V39.329c0-.731.452-1.329,1-1.329s1,.6,1,1.329Z" transform="translate(-63.42 11.92)" fill="#fff"/></g></g><g data-type="innerShadowGroup"><path d="M229.493,197.8c0,.731-.452,1.329-1,1.329s-1-.6-1-1.329V48.329c0-.731.452-1.329,1-1.329s1,.6,1,1.329Z" transform="translate(1841.437 -5304.771)" fill="#fd695e"/><g transform="matrix(1, 0, 0, 1, 1916.95, -5313.67)" filter="url(#ah)"><path d="M229.493,197.8c0,.731-.452,1.329-1,1.329s-1-.6-1-1.329V48.329c0-.731.452-1.329,1-1.329s1,.6,1,1.329Z" transform="translate(-75.51 8.9)" fill="#fff"/></g></g><g data-type="innerShadowGroup"><path d="M264.993,188.6c0,.731-.452,1.329-1,1.329s-1-.6-1-1.329V78.329c0-.731.452-1.329,1-1.329s1,.6,1,1.329Z" transform="translate(1829.52 -5314.841)" fill="#fd695e"/><g transform="matrix(1, 0, 0, 1, 1916.95, -5313.67)" filter="url(#ak)"><path d="M264.993,188.6c0,.731-.452,1.329-1,1.329s-1-.6-1-1.329V78.329c0-.731.452-1.329,1-1.329s1,.6,1,1.329Z" transform="translate(-87.43 -1.17)" fill="#fff"/></g></g><g data-type="innerShadowGroup"><path d="M296.493,179.809c0,.731-.452,1.329-1,1.329s-1-.6-1-1.329v-52.48c0-.731.452-1.329,1-1.329s1,.6,1,1.329Z" transform="translate(1818.946 -5331.291)" fill="#fd695e"/><g transform="matrix(1, 0, 0, 1, 1916.95, -5313.67)" filter="url(#an)"><path d="M296.493,179.809c0,.731-.452,1.329-1,1.329s-1-.6-1-1.329v-52.48c0-.731.452-1.329,1-1.329s1,.6,1,1.329Z" transform="translate(-98 -17.62)" fill="#fff"/></g></g></g><g transform="translate(-1913.911 5319)"><circle cx="41.5" cy="41.5" r="41.5" transform="translate(1993.02 -5138.996)" fill="#222d39" stroke="#fd695e" stroke-miterlimit="10" stroke-width="6"/><path d="M82.371,281.025a10.772,10.772,0,0,1-10.59,9.983H48.972A10.619,10.619,0,0,1,38.5,281.019L26.915,36c-.26-5.493,2.509-13.359,6.153-17.479,0,0,14.082-15.921,29.919-15.509,15.1.392,27.953,15.4,27.953,15.4,3.577,4.178,6.237,12.089,5.913,17.579Z" transform="translate(1973.577 -5319.004)" fill="#fff"/><path d="M82.371,281.025a10.772,10.772,0,0,1-10.59,9.983H48.972A10.619,10.619,0,0,1,38.5,281.019L26.915,36c-.26-5.493,2.509-13.359,6.153-17.479,0,0,14.082-15.921,29.919-15.509,15.1.392,27.953,15.4,27.953,15.4,3.577,4.178,6.237,12.089,5.913,17.579Z" transform="translate(1973.577 -5319.004)" fill="#222d39" stroke="#fd695e" stroke-miterlimit="10" stroke-width="6"/><path d="M39.443,221.508a21.5,21.5,0,1,0,21.5-21.5,21.5,21.5,0,0,0-21.5,21.5" transform="translate(1973.577 -5319.004)" fill="#222d39" stroke="#fd695e" stroke-width="5"/><path d="M71.1,14.358c-.422-.814-2.084-1.777-3.693-2.141,0,0-8.244-1.864-17.608,3.423a26.739,26.739,0,0,0-11.15,11.505c-.639,1.521-.818,3.431-.4,4.245s2.179,1.773,2.967.323A30.77,30.77,0,0,1,53.447,20.507c2.4-1.244,16.205-2.844,16.205-2.844,1.639-.19,1.868-2.491,1.446-3.305" transform="translate(1973.577 -5319.004)" fill="#fd695e"/><g transform="translate(1976.52 -5319)"><rect width="116" height="294.013" fill="none"/></g></g></g></svg>